<svg width="1067" height="676" xmlns="http://www.w3.org/2000/svg" preserveAspectRatio="xMidYMid meet">

 <g>
  <title>background</title>
  <rect fill="none" id="canvas_background" height="602" width="802" y="-1" x="-1"/>
 </g>
 <g>
  <title>Layer 1</title>
  <g transform="translate(0,676) scale(0.10000000149011612,-0.10000000149011612) " fill="white" id="svg_1">
   <path d="m4387,6293c-96,-308 -282,-667 -491,-948l-86,-115l0,-995l0,-995l305,0l305,0l0,1570c0,864 -1,1570 -3,1570c-2,0 -15,-39 -30,-87z" id="svg_2" fill="#de3b21"/>
   <path d="m3392,4789c-104,-98 -285,-245 -425,-347l-87,-62l0,-570l0,-570l310,0l310,0l0,820c0,451 -2,820 -5,820c-3,0 -49,-41 -103,-91z" id="svg_3" fill="#ffffff"/>
   <path d="m2440,4119c-109,-60 -331,-166 -442,-213l-38,-15l0,-325l0,-326l305,0l305,0l0,475c0,261 -1,474 -2,474c-2,-1 -59,-32 -128,-70z" id="svg_4" fill="#ffffff"/>
   <path d="m1520,3733c-58,-19 -190,-56 -295,-83l-190,-49l-3,-180l-2,-181l310,0l310,0l0,265c0,206 -3,265 -12,264c-7,-1 -60,-17 -118,-36z" id="svg_5" fill="#ffffff"/>
   <path d="m600,3525c-41,-7 -151,-20 -245,-30c-93,-9 -189,-18 -212,-21l-43,-5l0,-115l0,-114l310,0l310,0l0,150c0,173 14,157 -120,135z" id="svg_6" fill="#ffffff"/>
   <path d="m9590,3355l0,-115l223,2l222,3l3,113l3,112l-226,0l-225,0l0,-115z" id="svg_7" fill="#ffffff"/>
   <path d="m100,2998c0,-7 -9,-71 -20,-143c-10,-71 -18,-131 -16,-132c2,-2 24,6 50,18c71,31 221,41 556,37c326,-3 347,-7 362,-63c13,-50 -7,-93 -50,-105c-22,-6 -172,-10 -363,-10c-358,0 -381,-3 -463,-59c-64,-44 -112,-112 -137,-194c-18,-58 -21,-87 -17,-191c4,-114 6,-128 36,-189c38,-77 82,-119 172,-161l65,-31l316,-3l316,-3l69,86c68,86 69,87 76,59c4,-16 13,-54 20,-84l13,-55l298,-3c163,-1 297,-1 297,2c0,2 -8,21 -17,42c-15,34 -18,95 -23,474c-5,395 -8,439 -25,480c-43,104 -99,164 -195,209l-55,26l-632,3c-514,2 -633,1 -633,-10zm940,-763c0,-143 -7,-171 -50,-210c-20,-18 -36,-20 -170,-20c-164,0 -178,5 -206,72c-19,45 -18,195 1,233c29,57 42,60 242,60l183,0l0,-135z" id="svg_8" fill="#ffffff"/>
   <path d="m1880,3008c0,-2 9,-32 20,-66c19,-60 20,-93 20,-527c0,-374 -3,-478 -15,-535c-8,-39 -20,-80 -25,-91c-10,-19 -4,-19 339,-19l349,0l-21,58c-21,55 -22,71 -22,469l0,413l32,32c32,31 36,32 133,36c137,6 186,-3 222,-39l29,-28l-3,-423c-3,-411 -4,-424 -25,-470l-22,-48l350,0c192,0 349,2 349,4c0,2 -8,23 -17,47c-15,38 -18,101 -23,469c-5,411 -6,427 -28,482c-31,78 -59,116 -117,160c-92,70 -111,73 -459,73l-310,0l-68,-83c-40,-49 -70,-78 -73,-70c-2,7 -10,45 -17,83l-14,70l-292,3c-161,1 -292,1 -292,0z" id="svg_9" fill="#ffffff"/>
   <path d="m4090,2996c-108,-23 -189,-90 -239,-196l-26,-55l0,-355l0,-355l27,-55c37,-75 107,-146 176,-178l57,-27l570,0l570,0l59,29c76,37 140,101 174,174l27,57l0,355l0,355l-27,57c-49,106 -147,179 -264,198c-88,15 -1035,11 -1104,-4zm747,-242c51,-38 53,-47 53,-362c0,-323 -4,-348 -59,-376c-42,-22 -299,-23 -341,-1c-60,31 -60,30 -60,376c0,408 -11,390 242,386c121,-2 140,-4 165,-23z" id="svg_10" fill="#ffffff"/>
   <path d="m5720,3001c0,-5 8,-28 18,-52c15,-40 17,-91 17,-544c-1,-511 -2,-529 -40,-617c-7,-17 13,-18 344,-18l352,0l-15,28c-32,61 -37,143 -34,537l3,390l140,3c190,4 325,-10 386,-41l49,-24l0,174l0,173l-610,0c-342,0 -610,-4 -610,-9z" id="svg_11" fill="#ffffff"/>
   <path d="m7399,3000c-98,-17 -187,-85 -240,-182l-34,-63l0,-365l0,-365l27,-52c55,-104 125,-162 226,-188c49,-13 156,-15 673,-13l614,3l16,100c8,55 19,119 22,142l7,42l-57,-27l-58,-27l-392,-3c-348,-3 -395,-2 -427,13c-50,24 -66,65 -66,169l0,86l511,0l510,0l-3,234l-3,234l-40,78c-31,60 -52,87 -90,116c-99,74 -81,72 -645,74c-278,1 -526,-2 -551,-6zm675,-234c50,-21 67,-67 64,-173l-3,-88l-210,0l-210,0l-3,75c-4,98 3,132 34,163c32,32 42,34 182,36c76,1 123,-3 146,-13z" id="svg_12" fill="#ffffff"/>
   <path d="m8963,2948c20,-59 21,-91 27,-488l5,-425l26,-56c52,-109 138,-177 253,-198c34,-6 185,-11 355,-11l296,0l63,80c35,44 67,80 71,80c5,0 14,-36 21,-80l12,-80l284,0c156,0 284,2 284,4c0,2 -10,25 -22,52c-23,49 -23,52 -26,617l-3,567l-321,0c-301,0 -320,-1 -313,-17c36,-86 38,-109 42,-487c6,-406 3,-433 -43,-477c-24,-22 -35,-24 -146,-28c-146,-4 -191,7 -218,52c-19,30 -20,54 -20,495l0,462l-324,0l-324,0l21,-62z" id="svg_13" fill="#ffffff"/>
   <path d="m10351,1631c0,-11 14,-31 32,-46c27,-23 39,-26 72,-22c42,6 86,43 86,73c0,21 -38,17 -45,-6c-12,-38 -83,-40 -100,-2c-12,27 -45,30 -45,3z" id="svg_14" fill="#ffffff"/>
   <path d="m2430,1531c-83,-26 -132,-75 -156,-159c-20,-67 -14,-162 14,-225c73,-165 314,-169 387,-7c16,36 17,43 4,51c-26,16 -46,9 -59,-20c-22,-53 -64,-84 -122,-88c-109,-8 -168,61 -168,197c0,130 56,200 160,200c56,0 102,-27 120,-70c11,-27 17,-31 39,-25c35,9 36,10 21,45c-33,81 -148,129 -240,101z" id="svg_15" fill="#ffffff"/>
   <path d="m5031,1525c-192,-60 -210,-381 -28,-477c55,-29 156,-31 207,-4c86,45 132,124 133,230c2,84 -21,145 -73,197c-65,65 -145,83 -239,54zm163,-68c59,-33 81,-84 81,-183c0,-70 -3,-85 -27,-121c-35,-53 -85,-77 -153,-71c-65,5 -106,34 -134,91c-35,73 -23,205 24,257c47,52 143,65 209,27z" id="svg_16" fill="#ffffff"/>
   <path d="m5561,1525c-51,-16 -94,-54 -124,-110c-18,-32 -22,-57 -22,-130c0,-79 4,-97 28,-148c33,-67 87,-104 163,-113c98,-12 180,32 217,114c16,37 17,46 6,53c-28,17 -48,8 -66,-28c-28,-57 -77,-86 -139,-81c-100,8 -148,72 -148,198c-1,128 47,190 152,198c55,4 61,2 95,-28c20,-17 39,-40 42,-51c6,-17 12,-19 33,-14c15,4 29,8 31,10c9,10 -24,68 -55,95c-56,49 -130,61 -213,35z" id="svg_17" fill="#ffffff"/>
   <path d="m2032,1490c-18,-22 -51,-50 -73,-63c-30,-17 -39,-28 -39,-49c0,-16 3,-28 8,-28c4,0 31,15 60,34l52,35l0,-195l0,-194l30,0l30,0l0,250c0,231 -1,250 -17,250c-10,0 -33,-18 -51,-40z" id="svg_18" fill="#ffffff"/>
   <path d="m3007,1393c-8,-200 -34,-303 -77,-303c-18,0 -20,-7 -20,-90l0,-90l30,0l30,0l0,60l0,60l165,0l165,0l0,-60c0,-57 1,-60 25,-60c25,0 25,1 25,90c0,83 -1,90 -20,90c-19,0 -20,7 -20,220l0,220l-149,0l-148,0l-6,-137zm233,-113l0,-190l-110,0c-60,0 -110,2 -110,3c0,2 9,38 19,80c11,41 23,125 27,186l7,111l83,0l84,0l0,-190z" id="svg_19" fill="#ffffff"/>
   <path d="m3460,1316c0,-227 -4,-245 -49,-233c-14,3 -21,-2 -26,-21c-11,-46 55,-59 101,-19c34,30 42,81 43,280l1,147l90,0l90,0l0,-220l0,-220l30,0l30,0l0,250l0,250l-155,0l-155,0l0,-214z" id="svg_20" fill="#ffffff"/>
   <path d="m3963,1519c-17,-5 -43,-23 -57,-39c-59,-70 -38,-157 48,-199l49,-24l-26,-19c-23,-16 -137,-185 -137,-202c0,-3 17,-6 38,-6c36,1 39,4 82,77c25,42 59,91 76,110c29,31 35,33 98,33l66,0l0,-110l0,-110l30,0l30,0l0,250l0,250l-132,-1c-73,0 -147,-5 -165,-10zm237,-130l0,-81l-111,4c-102,3 -112,5 -130,27c-28,35 -25,85 7,110c23,18 41,21 130,21l104,0l0,-81z" id="svg_21" fill="#ffffff"/>
   <path d="m4560,1280l0,-250l35,0l35,0l0,220l0,220l125,0l125,0l0,30l0,30l-160,0l-160,0l0,-250z" id="svg_22" fill="#ffffff"/>
   <path d="m5878,1478c16,-29 62,-112 101,-185c70,-128 71,-133 57,-161c-22,-44 -41,-55 -86,-50c-38,3 -40,2 -40,-23c0,-22 6,-29 30,-34c46,-10 87,3 110,35c11,16 66,124 121,241c55,117 103,217 105,221c3,4 -9,8 -26,8c-30,0 -33,-5 -80,-107c-28,-60 -60,-130 -73,-156l-22,-48l-80,155c-79,153 -80,156 -113,156l-33,0l29,-52z" id="svg_23" fill="#ffffff"/>
   <path d="m6311,1411c5,-140 16,-163 93,-195c41,-18 54,-19 109,-9c34,7 72,15 85,19c22,6 22,5 22,-95l0,-101l30,0l30,0l0,250l0,250l-30,0l-30,0l0,-120l0,-120l-27,-11c-47,-18 -130,-23 -163,-9c-44,18 -53,42 -58,158l-5,102l-29,0l-30,0l3,-119z" id="svg_24" fill="#ffffff"/>
   <path d="m6790,1281l0,-251l35,0l35,0l0,99l0,99l103,4c56,3 114,11 130,18c64,31 91,136 54,207c-29,56 -65,67 -219,71l-138,4l0,-251zm285,164c18,-17 25,-35 25,-62c-1,-72 -36,-93 -154,-93l-86,0l0,90l0,90l95,0c88,0 98,-2 120,-25z" id="svg_25" fill="#ffffff"/>
   <path d="m7250,1280l0,-250l185,0l185,0l0,30l0,30l-150,0l-150,0l0,85l0,85l135,0l135,0l0,30l0,30l-135,0l-135,0l0,75l0,75l145,0l145,0l0,30l0,30l-180,0l-180,0l0,-250z" id="svg_26" fill="#ffffff"/>
   <path d="m7660,1502c0,-27 4,-31 33,-34c29,-3 35,-10 69,-78c20,-41 47,-83 58,-92l21,-17l-35,-32c-30,-26 -146,-196 -146,-214c0,-3 17,-5 38,-5c36,1 39,3 92,91c58,96 99,139 131,139c18,0 19,-8 19,-115l0,-115l30,0l30,0l0,115c0,104 2,115 18,115c32,0 61,-30 123,-130c61,-98 63,-100 101,-100l38,0l0,-60l0,-60l30,0l30,0l0,60l0,60l165,0l165,0l0,-60c0,-57 1,-60 25,-60c25,0 25,1 25,90c0,83 -1,90 -20,90c-19,0 -20,7 -20,220l0,220l-149,0l-148,0l-6,-152c-6,-188 -32,-288 -72,-288c-18,0 -24,-6 -27,-25c-3,-22 -10,-14 -52,55c-57,96 -102,150 -124,150c-13,0 -10,7 11,26c15,14 39,51 53,82c32,72 50,92 86,92c24,0 28,4 28,30c0,27 -3,30 -30,30c-59,0 -89,-26 -127,-108c-41,-90 -67,-122 -100,-122c-23,0 -23,1 -23,115l0,115l-30,0l-30,0l0,-115l0,-115l-25,0c-34,0 -65,35 -95,109c-31,77 -65,111 -119,118c-40,6 -41,5 -41,-25zm960,-222l0,-190l-116,0c-107,0 -116,1 -109,18c19,51 36,149 42,250l6,112l89,0l88,0l0,-190z" id="svg_27" fill="#ffffff"/>
   <path d="m8800,1280l0,-250l185,0l185,0l0,30l0,30l-150,0l-150,0l0,85l0,85l135,0l135,0l0,30l0,30l-135,0l-135,0l0,75l0,75l145,0l145,0l0,30l0,30l-180,0l-180,0l0,-250z" id="svg_28" fill="#ffffff"/>
   <path d="m9260,1280l0,-250l35,0l35,0l0,120l0,120l125,0l125,0l0,-120l0,-120l35,0l35,0l0,250l0,250l-35,0l-35,0l0,-100l0,-100l-125,0l-125,0l0,100l0,100l-35,0l-35,0l0,-250z" id="svg_29" fill="#ffffff"/>
   <path d="m9760,1280l0,-250l29,0c27,0 40,15 160,198l131,197l0,-197l0,-198l30,0l30,0l0,250l0,250l-32,0c-32,0 -38,-8 -163,-198l-130,-197l-3,198l-2,197l-25,0l-25,0l0,-250z" id="svg_30" fill="#ffffff"/>
   <path d="m10250,1280l0,-250l30,0c28,0 39,15 162,198l133,197l3,-197l2,-198l25,0l25,0l0,250l0,250l-30,0c-28,0 -39,-14 -157,-191l-128,-192l-3,192l-2,191l-30,0l-30,0l0,-250z" id="svg_31" fill="#ffffff"/>
  </g>
 </g>
</svg>